<mxfile host="app.diagrams.net" modified="2022-02-20T19:38:25.647Z" agent="5.0 (Windows NT 10.0; Win64; x64) AppleWebKit/537.36 (KHTML, like Gecko) Chrome/98.0.4758.102 Safari/537.36" etag="vrDy5Xb5aTSTp42GOy_T" version="16.5.6" type="github">
  <diagram id="prtHgNgQTEPvFCAcTncT" name="Page-1">
    <mxGraphModel dx="868" dy="1651" grid="1" gridSize="10" guides="1" tooltips="1" connect="1" arrows="1" fold="1" page="1" pageScale="1" pageWidth="827" pageHeight="1169" math="0" shadow="0">
      <root>
        <mxCell id="0" />
        <mxCell id="1" parent="0" />
        <mxCell id="BWQbOvfcrLr_JEcHOKxC-36" value="T" style="edgeStyle=orthogonalEdgeStyle;rounded=0;orthogonalLoop=1;jettySize=auto;html=1;entryX=0.5;entryY=0;entryDx=0;entryDy=0;" edge="1" parent="1" source="BWQbOvfcrLr_JEcHOKxC-19">
          <mxGeometry relative="1" as="geometry">
            <mxPoint x="80" y="90" as="targetPoint" />
          </mxGeometry>
        </mxCell>
        <mxCell id="BWQbOvfcrLr_JEcHOKxC-37" style="edgeStyle=orthogonalEdgeStyle;rounded=0;orthogonalLoop=1;jettySize=auto;html=1;exitX=0;exitY=0.75;exitDx=0;exitDy=0;" edge="1" parent="1" source="BWQbOvfcrLr_JEcHOKxC-19">
          <mxGeometry relative="1" as="geometry">
            <mxPoint x="210" y="90" as="targetPoint" />
          </mxGeometry>
        </mxCell>
        <mxCell id="BWQbOvfcrLr_JEcHOKxC-38" style="edgeStyle=orthogonalEdgeStyle;rounded=0;orthogonalLoop=1;jettySize=auto;html=1;exitX=0;exitY=1;exitDx=0;exitDy=0;entryX=0.675;entryY=-0.009;entryDx=0;entryDy=0;entryPerimeter=0;" edge="1" parent="1" source="BWQbOvfcrLr_JEcHOKxC-19" target="BWQbOvfcrLr_JEcHOKxC-25">
          <mxGeometry relative="1" as="geometry" />
        </mxCell>
        <mxCell id="BWQbOvfcrLr_JEcHOKxC-42" style="edgeStyle=orthogonalEdgeStyle;rounded=0;orthogonalLoop=1;jettySize=auto;html=1;exitX=1;exitY=0.5;exitDx=0;exitDy=0;entryX=0.5;entryY=0;entryDx=0;entryDy=0;" edge="1" parent="1" source="BWQbOvfcrLr_JEcHOKxC-19" target="BWQbOvfcrLr_JEcHOKxC-28">
          <mxGeometry relative="1" as="geometry" />
        </mxCell>
        <mxCell id="BWQbOvfcrLr_JEcHOKxC-87" style="edgeStyle=orthogonalEdgeStyle;rounded=0;orthogonalLoop=1;jettySize=auto;html=1;exitX=0.5;exitY=1;exitDx=0;exitDy=0;fontFamily=Helvetica;fontSize=12;" edge="1" parent="1" source="BWQbOvfcrLr_JEcHOKxC-19">
          <mxGeometry relative="1" as="geometry">
            <mxPoint x="480" y="90" as="targetPoint" />
          </mxGeometry>
        </mxCell>
        <mxCell id="BWQbOvfcrLr_JEcHOKxC-92" style="edgeStyle=orthogonalEdgeStyle;rounded=0;orthogonalLoop=1;jettySize=auto;html=1;exitX=1;exitY=0.75;exitDx=0;exitDy=0;fontFamily=Helvetica;fontSize=14;" edge="1" parent="1" source="BWQbOvfcrLr_JEcHOKxC-19" target="BWQbOvfcrLr_JEcHOKxC-89">
          <mxGeometry relative="1" as="geometry" />
        </mxCell>
        <mxCell id="BWQbOvfcrLr_JEcHOKxC-19" value="" style="rounded=0;whiteSpace=wrap;html=1;" vertex="1" parent="1">
          <mxGeometry x="360" y="-220" width="120" height="255" as="geometry" />
        </mxCell>
        <mxCell id="BWQbOvfcrLr_JEcHOKxC-25" value="" style="rounded=0;whiteSpace=wrap;html=1;" vertex="1" parent="1">
          <mxGeometry x="280" y="90" width="120" height="220" as="geometry" />
        </mxCell>
        <mxCell id="BWQbOvfcrLr_JEcHOKxC-28" value="" style="rounded=0;whiteSpace=wrap;html=1;" vertex="1" parent="1">
          <mxGeometry x="700" y="90" width="120" height="220" as="geometry" />
        </mxCell>
        <mxCell id="BWQbOvfcrLr_JEcHOKxC-46" value="Basic Page Layout" style="text;html=1;strokeColor=none;fillColor=none;align=center;verticalAlign=middle;whiteSpace=wrap;rounded=0;fontSize=24;" vertex="1" parent="1">
          <mxGeometry x="120" y="-260" width="570" height="30" as="geometry" />
        </mxCell>
        <mxCell id="BWQbOvfcrLr_JEcHOKxC-56" value="" style="rounded=0;whiteSpace=wrap;html=1;fontSize=12;" vertex="1" parent="1">
          <mxGeometry x="150" y="90" width="120" height="220" as="geometry" />
        </mxCell>
        <mxCell id="BWQbOvfcrLr_JEcHOKxC-62" value="&lt;h2&gt;BIKE INFO&lt;/h2&gt;" style="text;html=1;strokeColor=none;fillColor=none;align=center;verticalAlign=middle;whiteSpace=wrap;rounded=0;fontSize=12;" vertex="1" parent="1">
          <mxGeometry x="150" y="80" width="120" height="40" as="geometry" />
        </mxCell>
        <mxCell id="BWQbOvfcrLr_JEcHOKxC-64" value="Information on the differences between the different years the bikes were made, the advantages and disadvantages of each model year, and how much you should expect to spend on them." style="text;html=1;strokeColor=none;fillColor=none;align=center;verticalAlign=middle;whiteSpace=wrap;rounded=0;fontSize=12;" vertex="1" parent="1">
          <mxGeometry x="150" y="125" width="120" height="165" as="geometry" />
        </mxCell>
        <mxCell id="BWQbOvfcrLr_JEcHOKxC-69" value="" style="rounded=0;whiteSpace=wrap;html=1;fontSize=18;" vertex="1" parent="1">
          <mxGeometry x="10" y="90" width="130" height="220" as="geometry" />
        </mxCell>
        <mxCell id="BWQbOvfcrLr_JEcHOKxC-74" value="&lt;h1&gt;&lt;br&gt;&lt;/h1&gt;&lt;div&gt;&lt;br&gt;&lt;/div&gt;" style="text;html=1;strokeColor=none;fillColor=none;spacing=5;spacingTop=-20;whiteSpace=wrap;overflow=hidden;rounded=0;fontFamily=Helvetica;fontSize=12;align=center;" vertex="1" parent="1">
          <mxGeometry x="10" y="90" width="130" height="140" as="geometry" />
        </mxCell>
        <mxCell id="BWQbOvfcrLr_JEcHOKxC-80" style="edgeStyle=orthogonalEdgeStyle;rounded=0;orthogonalLoop=1;jettySize=auto;html=1;entryX=0.431;entryY=0.008;entryDx=0;entryDy=0;entryPerimeter=0;fontFamily=Helvetica;fontSize=12;" edge="1" parent="1">
          <mxGeometry relative="1" as="geometry">
            <mxPoint x="75" y="90" as="sourcePoint" />
            <mxPoint x="66.02999999999997" y="90.96000000000004" as="targetPoint" />
          </mxGeometry>
        </mxCell>
        <mxCell id="BWQbOvfcrLr_JEcHOKxC-85" value="&lt;h1&gt;&lt;font size=&quot;3&quot;&gt;ABOUT ME&lt;/font&gt;&lt;/h1&gt;&lt;div&gt;&lt;font style=&quot;font-size: 12px&quot;&gt;Information about&amp;nbsp; me, my philosophy, and why I love these bikes so much. I will also explain why the end user should get into this hobby.&lt;/font&gt;&lt;/div&gt;" style="text;html=1;strokeColor=none;fillColor=none;spacing=5;spacingTop=-20;whiteSpace=wrap;overflow=hidden;rounded=0;fontFamily=Helvetica;fontSize=12;align=center;" vertex="1" parent="1">
          <mxGeometry x="10" y="80" width="130" height="160" as="geometry" />
        </mxCell>
        <mxCell id="BWQbOvfcrLr_JEcHOKxC-86" value="&lt;h1&gt;&lt;font size=&quot;3&quot;&gt;TECH TIPS&lt;/font&gt;&lt;/h1&gt;&lt;div&gt;&lt;font style=&quot;font-size: 12px&quot;&gt;Information on how to perform maintenance items from large to small. Also an introduction to the repair manual and how to repair and maintain a newly bought airhead.&amp;nbsp;&lt;/font&gt;&lt;/div&gt;" style="text;html=1;strokeColor=none;fillColor=none;spacing=5;spacingTop=-20;whiteSpace=wrap;overflow=hidden;rounded=0;fontFamily=Helvetica;fontSize=14;align=center;" vertex="1" parent="1">
          <mxGeometry x="280" y="70" width="120" height="240" as="geometry" />
        </mxCell>
        <mxCell id="BWQbOvfcrLr_JEcHOKxC-89" value="" style="rounded=0;whiteSpace=wrap;html=1;fontFamily=Helvetica;fontSize=12;" vertex="1" parent="1">
          <mxGeometry x="540" y="90" width="150" height="220" as="geometry" />
        </mxCell>
        <mxCell id="BWQbOvfcrLr_JEcHOKxC-95" value="" style="rounded=0;whiteSpace=wrap;html=1;fontFamily=Helvetica;fontSize=14;" vertex="1" parent="1">
          <mxGeometry x="414" y="90" width="120" height="220" as="geometry" />
        </mxCell>
        <mxCell id="BWQbOvfcrLr_JEcHOKxC-96" value="&lt;h1&gt;&lt;br&gt;&lt;/h1&gt;&lt;div&gt;&lt;span style=&quot;font-size: 12px&quot;&gt;Information on special tools needed to work on old BMW motorcycles. These tools are a must if you plan on owning and maintaining an airhead.&lt;/span&gt;&lt;/div&gt;" style="text;html=1;strokeColor=none;fillColor=none;spacing=5;spacingTop=-20;whiteSpace=wrap;overflow=hidden;rounded=0;fontFamily=Helvetica;fontSize=14;align=center;" vertex="1" parent="1">
          <mxGeometry x="410" y="70" width="130" height="240" as="geometry" />
        </mxCell>
        <mxCell id="BWQbOvfcrLr_JEcHOKxC-97" value="&lt;h4&gt;SPECIAL TOOLS&lt;/h4&gt;" style="text;html=1;strokeColor=none;fillColor=none;align=center;verticalAlign=middle;whiteSpace=wrap;rounded=0;fontFamily=Helvetica;fontSize=12;" vertex="1" parent="1">
          <mxGeometry x="410" y="90" width="120" height="30" as="geometry" />
        </mxCell>
        <mxCell id="BWQbOvfcrLr_JEcHOKxC-99" value="&lt;h1&gt;&lt;font style=&quot;font-size: 12px&quot;&gt;SPECIAL PROJECTS&lt;/font&gt;&lt;/h1&gt;&lt;div&gt;&lt;font style=&quot;font-size: 12px&quot;&gt;These are some projects that I have taken on and some that I plan on doing in the near future. Some of these projects include paint prep, how to know if your bike is ready for a side car, and many other topics. There will also be a feedback page where we can discuss your topics of interest.&lt;/font&gt;&lt;/div&gt;" style="text;html=1;strokeColor=none;fillColor=none;spacing=5;spacingTop=-20;whiteSpace=wrap;overflow=hidden;rounded=0;fontFamily=Helvetica;fontSize=12;align=center;" vertex="1" parent="1">
          <mxGeometry x="540" y="80" width="150" height="230" as="geometry" />
        </mxCell>
        <mxCell id="BWQbOvfcrLr_JEcHOKxC-100" value="&lt;h1&gt;&lt;span style=&quot;font-size: 14px&quot;&gt;CONTACT ME&lt;/span&gt;&lt;/h1&gt;&lt;div&gt;&lt;font style=&quot;font-size: 12px&quot;&gt;This is my contact page. It will contain contact information, a feedback section, and helpful links.&lt;/font&gt;&lt;/div&gt;" style="text;html=1;strokeColor=none;fillColor=none;spacing=5;spacingTop=-20;whiteSpace=wrap;overflow=hidden;rounded=0;fontFamily=Helvetica;fontSize=12;align=center;" vertex="1" parent="1">
          <mxGeometry x="700" y="80" width="120" height="230" as="geometry" />
        </mxCell>
        <mxCell id="BWQbOvfcrLr_JEcHOKxC-101" value="&lt;h1&gt;&lt;font style=&quot;font-size: 12px&quot;&gt;MAIN PAGE&lt;/font&gt;&lt;/h1&gt;&lt;div&gt;&lt;font style=&quot;font-size: 12px&quot;&gt;This is my splash page. This page will contain header, asides, articles, and a footer. The layout will be simple and uncomplicated, as this is the first thing visitors to my sight will see. Will include an image and an welcome message. This page is designed to attract users.&lt;/font&gt;&lt;/div&gt;" style="text;html=1;strokeColor=none;fillColor=none;spacing=5;spacingTop=-20;whiteSpace=wrap;overflow=hidden;rounded=0;fontFamily=Helvetica;fontSize=12;align=center;" vertex="1" parent="1">
          <mxGeometry x="360" y="-230" width="120" height="270" as="geometry" />
        </mxCell>
      </root>
    </mxGraphModel>
  </diagram>
</mxfile>
